<svg width="24" height="24" viewBox="0 0 24 24" fill="none" xmlns="http://www.w3.org/2000/svg">
<path d="M20.25 3.00049H8.25C8.05109 3.00049 7.86032 3.07951 7.71967 3.22016C7.57902 3.36081 7.5 3.55158 7.5 3.75049V7.50049H3.75C3.55109 7.50049 3.36032 7.57951 3.21967 7.72016C3.07902 7.86081 3 8.05158 3 8.25049V20.2505C3 20.4494 3.07902 20.6402 3.21967 20.7808C3.36032 20.9215 3.55109 21.0005 3.75 21.0005H15.75C15.9489 21.0005 16.1397 20.9215 16.2803 20.7808C16.421 20.6402 16.5 20.4494 16.5 20.2505V16.5005H20.25C20.4489 16.5005 20.6397 16.4215 20.7803 16.2808C20.921 16.1402 21 15.9494 21 15.7505V3.75049C21 3.55158 20.921 3.36081 20.7803 3.22016C20.6397 3.07951 20.4489 3.00049 20.25 3.00049ZM15 19.5005H4.5V9.00049H15V19.5005ZM19.5 15.0005H16.5V8.25049C16.5 8.05158 16.421 7.86081 16.2803 7.72016C16.1397 7.57951 15.9489 7.50049 15.75 7.50049H9V4.50049H19.5V15.0005Z" fill="#C0C0C0"/>
</svg>
